<svg width="109" height="40" viewBox="0 0 109 40" fill="none" xmlns="http://www.w3.org/2000/svg">
<g id="Logo_NIKE 1" clip-path="url(#clip0_37_53)">
<path id="Vector" d="M12.0235 39.9833C8.77577 39.8504 6.11862 38.9353 4.04095 37.2357C3.64443 36.9111 2.69958 35.9376 2.38259 35.527C1.54007 34.4361 0.967263 33.3745 0.585207 32.1966C-0.590435 28.5706 0.0146258 23.8126 2.31586 18.5908C4.2862 14.1202 7.32651 9.68629 12.6308 3.54535C13.4122 2.64172 15.739 -0.000976562 15.754 -0.000976562C15.7595 -0.000976562 15.6327 0.225213 15.4731 0.500653C14.094 2.87937 12.9139 5.68127 12.271 8.10696C11.2383 11.9992 11.3628 15.3393 12.6358 17.9294C13.5139 19.7137 15.0193 21.2592 16.7122 22.1136C19.6758 23.6088 24.0146 23.7324 29.3133 22.4755C29.6782 22.3885 47.7554 17.4472 69.4853 11.4947C91.2152 5.54154 108.997 0.674732 109 0.678738C109.006 0.683901 58.5153 22.9307 32.3047 34.4722C28.1538 36.2995 27.0438 36.761 25.0924 37.4665C20.104 39.2703 15.6355 40.131 12.0235 39.9833Z" fill="black"/>
</g>
<defs>
<clipPath id="clip0_37_53">
<rect width="109" height="40" fill="white"/>
</clipPath>
</defs>
</svg>
